<svg xmlns="http://www.w3.org/2000/svg" width="230" height="58" fill="none"><path fill="#2170F5" d="M32.094 0h5.502a.515.515 0 0 1 .513.514v55.214a.515.515 0 0 1-.513.515h-5.502a.515.515 0 0 1-.512-.515V.566a.527.527 0 0 1 .49-.564L32.093 0ZM69.84 45.465v1.383a11.368 11.368 0 0 1-.356 2.528 6.514 6.514 0 0 1-1.646 3.094c-.872 1.033-2.155 1.91-3.953 2.681-1.799.771-4.16 1.134-7.242 1.134-3.08 0-5.502-.358-7.241-1.134a11.326 11.326 0 0 1-3.953-2.68 6.885 6.885 0 0 1-1.643-3.145c-.19-.813-.31-1.641-.36-2.474V15.414a.515.515 0 0 1 .513-.518h5.502a.515.515 0 0 1 .512.518v29.432a7.48 7.48 0 0 0 .31 2.217c.157.584.437 1.128.82 1.597.513.573 1.169 1 1.9 1.24a8.731 8.731 0 0 0 3.387.514 10.827 10.827 0 0 0 3.542-.515 5.27 5.27 0 0 0 1.952-1.188 3.45 3.45 0 0 0 .922-1.543c.26-.763.382-1.567.36-2.373V15.414a.515.515 0 0 1 .512-.518h5.502a.515.515 0 0 1 .512.518l.152 30.052h-.004Zm18.693-30.57h3.7a.477.477 0 0 1 .46.62l-1.223 4.78a.474.474 0 0 1-.466.363H88.44a8.445 8.445 0 0 0-3.34.568 5.142 5.142 0 0 0-1.951 1.286c-.41.451-.712.99-.88 1.576a5.752 5.752 0 0 0-.208 1.547V55.69a.515.515 0 0 1-.512.514h-5.545a.515.515 0 0 1-.516-.514V24.328c.027-.835.148-1.665.36-2.474a6.733 6.733 0 0 1 1.654-3.145c.876-1.028 2.159-1.905 3.957-2.68 1.581-.72 4.045-1.134 7.074-1.134Zm-75.488 0c4.47 0 7.754.877 9.912 2.63a8.566 8.566 0 0 1 3.132 6.651v22.63a11.78 11.78 0 0 1-.516 3.043 7.344 7.344 0 0 1-1.897 3.039 11.464 11.464 0 0 1-4.007 2.322c-1.693.615-3.903.928-6.573.928a20.784 20.784 0 0 1-6.572-.928 10.714 10.714 0 0 1-4.004-2.322 6.047 6.047 0 0 1-1.9-3.04 9.963 9.963 0 0 1-.517-3.042v-3.608a10.116 10.116 0 0 1 1.49-5.311 7.992 7.992 0 0 1 4.232-3.351c.922-.363 1.9-.62 3.132-1.083 1.13-.422 2.31-.771 3.386-1.185 1.075-.413 2.001-.72 2.877-1.032.876-.312 1.334-.464 1.541-.565.208-.1.462-.257.77-.421.349-.227.674-.485.974-.771.315-.348.569-.745.753-1.176.259-.51.382-1.077.36-1.649v-1.45a3.784 3.784 0 0 0-.36-1.596 3.662 3.662 0 0 0-1.079-1.492 6.16 6.16 0 0 0-2.002-1.139 9.204 9.204 0 0 0-3.182-.421c-2.57 0-4.211.514-5.19 1.597a5.742 5.742 0 0 0-1.333 3.372.473.473 0 0 1-.49.456H.512A.515.515 0 0 1 0 25.467v-1.34a9.26 9.26 0 0 1 .72-3.613 7.543 7.543 0 0 1 2.361-2.988 11.025 11.025 0 0 1 4.06-1.96 27.183 27.183 0 0 1 5.903-.67Zm6.573 20.362a1.634 1.634 0 0 1-.77 1.134c-.349.241-.729.433-1.13.57-.77.307-1.643.564-2.515.876-.871.312-1.747.62-2.518.877-.922.358-1.85.62-2.569.928-.63.302-1.232.665-1.794 1.082a5.686 5.686 0 0 0-1.236 1.598 4.964 4.964 0 0 0-.563 2.42c0 1.905.463 3.347 1.388 4.328.923.927 2.616 1.445 5.134 1.445 2.518 0 4.262-.518 5.24-1.496.978-.978 1.384-2.424 1.384-4.215l-.051-9.538v-.009Zm88.634-20.362c4.47 0 7.754.877 9.912 2.63a8.565 8.565 0 0 1 3.132 6.651v22.63a11.728 11.728 0 0 1-.512 3.043 7.402 7.402 0 0 1-1.901 3.039 11.483 11.483 0 0 1-4.003 2.322c-1.693.615-3.907.928-6.578.928a20.8 20.8 0 0 1-6.572-.928 10.713 10.713 0 0 1-4.004-2.322 6.079 6.079 0 0 1-1.9-3.04 9.958 9.958 0 0 1-.513-3.042v-3.608a10.088 10.088 0 0 1 1.49-5.311 7.984 7.984 0 0 1 4.207-3.351c.927-.363 1.901-.62 3.136-1.083 1.13-.422 2.311-.771 3.386-1.185 1.075-.413 2.006-.72 2.878-1.032.872-.312 1.333-.464 1.541-.565.207-.1.461-.257.77-.421.349-.224.675-.483.973-.771.321-.347.581-.744.771-1.176.258-.51.382-1.077.359-1.649v-1.45a3.787 3.787 0 0 0-.359-1.596 3.689 3.689 0 0 0-1.076-1.492 6.175 6.175 0 0 0-2.005-1.139 9.207 9.207 0 0 0-3.183-.421c-2.569 0-4.211.514-5.184 1.597a5.745 5.745 0 0 0-1.338 3.372.473.473 0 0 1-.512.464h-5.6a.515.515 0 0 1-.512-.514v-1.35a9.26 9.26 0 0 1 .72-3.611 7.173 7.173 0 0 1 2.361-2.989 11.026 11.026 0 0 1 4.06-1.96 29.943 29.943 0 0 1 6.056-.67Zm6.522 20.362a1.633 1.633 0 0 1-.77 1.134c-.348.241-.729.433-1.13.57-.771.307-1.642.564-2.514.876-.872.312-1.748.62-2.519.877-.922.358-1.849.62-2.564.928-.634.302-1.236.664-1.799 1.082-.503.456-.92.997-1.232 1.598a4.827 4.827 0 0 0-.567 2.423c0 1.906.463 3.348 1.388 4.329.923.927 2.62 1.445 5.134 1.445 2.514 0 4.262-.518 5.24-1.496.978-.978 1.384-2.424 1.384-4.215l-.051-9.538v-.013ZM139.998 12.26h-1.765V58h1.765V12.26ZM154.632 18.727c0-.19.153-.362.363-.362h4.487c2.349 0 4.278 1.902 4.278 4.203 0 2.357-1.929 4.278-4.258 4.278h-2.387v4.47c0 .189-.172.36-.363.36h-1.757a.362.362 0 0 1-.363-.36v-12.59Zm4.697 5.8c1.07 0 1.967-.856 1.967-1.978 0-1.046-.897-1.844-1.967-1.844h-2.215v3.822h2.215ZM168.358 26.866c.764 0 1.394.209 1.394.209.018-.97-.287-1.312-.993-1.312-.707 0-1.699.152-2.139.285-.267.077-.401-.095-.439-.342l-.172-.989c-.057-.285.096-.418.268-.476.153-.056 1.375-.361 2.597-.361 2.386 0 2.94 1.236 2.94 3.309v4.126c0 .19-.172.361-.363.361h-.688c-.133 0-.229-.057-.324-.265l-.229-.514c-.44.4-1.146.97-2.33.97-1.527 0-2.578-.989-2.578-2.605.001-1.35 1.108-2.396 3.056-2.396Zm.038 3.384c.611 0 1.203-.513 1.317-.741v-1.046s-.516-.229-1.069-.229c-.745 0-1.241.42-1.241 1.027.001.57.401.99.993.99ZM174.772 24.43c0-.209.171-.36.363-.36h.725c.172 0 .287.095.344.246l.268.742c.268-.38.974-1.18 2.157-1.18.898 0 1.7.286 1.471.761l-.706 1.236c-.096.171-.287.247-.44.171-.057-.019-.344-.114-.553-.114-.764 0-1.222.514-1.356.78v4.601c0 .267-.172.362-.439.362h-1.471a.376.376 0 0 1-.363-.362v-6.882ZM184.546 26.866c.763 0 1.393.209 1.393.209.019-.97-.286-1.312-.993-1.312-.706 0-1.699.152-2.138.285-.267.077-.401-.095-.439-.342l-.172-.989c-.057-.285.095-.418.268-.476.153-.056 1.374-.361 2.596-.361 2.387 0 2.94 1.236 2.94 3.309v4.126c0 .19-.171.361-.363.361h-.687c-.133 0-.229-.057-.324-.265l-.229-.514c-.44.4-1.146.97-2.33.97-1.527 0-2.578-.989-2.578-2.605.001-1.35 1.108-2.396 3.056-2.396Zm.038 3.384c.611 0 1.203-.513 1.317-.741v-1.046s-.516-.229-1.069-.229c-.745 0-1.241.42-1.241 1.027 0 .57.401.99.993.99ZM154.632 38.566c0-.19.153-.36.363-.36h7.772c.21 0 .363.17.363.36v1.56c0 .19-.153.361-.363.361h-5.652v3.119h4.716c.191 0 .363.17.363.361v1.578c0 .21-.172.362-.363.362h-4.716v3.328h5.652c.21 0 .363.17.363.361v1.56c0 .19-.153.361-.363.361h-7.772a.362.362 0 0 1-.363-.361v-12.59ZM165.685 44.27c0-.21.172-.362.363-.362h.706c.172 0 .287.095.325.21l.267.722a3.485 3.485 0 0 1 2.559-1.122c1.089 0 1.852.418 2.482 1.179.325-.343 1.317-1.18 2.693-1.18 2.444 0 3.341 1.807 3.341 3.804v3.632c0 .19-.153.361-.363.361h-1.547a.362.362 0 0 1-.363-.361v-3.764c0-.99-.477-1.617-1.432-1.617-1.108 0-1.604.799-1.604.799s.019.38.019.722v3.86c0 .19-.172.362-.363.362h-1.432a.361.361 0 0 1-.363-.361v-3.766c0-.988-.44-1.616-1.413-1.616-.955 0-1.414.684-1.605 1.198v4.183c0 .19-.172.361-.363.361h-1.547a.376.376 0 0 1-.363-.361V44.27h.003ZM183.668 56.858c0 .228-.114.361-.458.361h-1.527a.375.375 0 0 1-.363-.361V44.27c0-.21.171-.362.363-.362h.745c.133 0 .266.076.324.228l.248.628c.287-.38 1.222-1.046 2.463-1.046 2.101 0 3.686 1.806 3.686 3.993 0 2.244-1.719 3.993-3.781 3.993-.745 0-1.432-.266-1.7-.419v5.573Zm1.394-7.207c1.069 0 1.852-.875 1.852-1.94 0-1.064-.725-1.94-1.776-1.94-.974 0-1.451.761-1.566 1.16v2.283s.535.437 1.49.437ZM191.628 44.27c0-.21.171-.362.363-.362h.726c.171 0 .286.095.344.247l.267.742c.268-.38.974-1.18 2.158-1.18.897 0 1.699.286 1.47.761l-.706 1.236c-.095.171-.287.247-.439.171-.058-.019-.344-.114-.554-.114-.764 0-1.222.514-1.356.78v4.601c0 .267-.171.362-.439.362h-1.471a.376.376 0 0 1-.363-.362V44.27ZM202.166 43.719c1.967 0 3.571 1.483 3.571 3.537 0 .133-.019.38-.038.513a.37.37 0 0 1-.363.323h-4.888c.057.78.725 1.654 1.833 1.654.591 0 1.146-.228 1.49-.475.19-.114.363-.152.496 0l.782.893c.134.134.172.343-.019.495-.629.59-1.603 1.046-2.845 1.046-2.291 0-3.914-1.806-3.914-3.993 0-2.148 1.623-3.993 3.895-3.993Zm1.337 3.042c-.057-.703-.668-1.293-1.394-1.293-.763 0-1.393.57-1.489 1.293h2.883ZM207.682 50.602l.516-1.026c.076-.19.268-.229.439-.134 0 0 .859.457 1.738.457.382 0 .649-.153.649-.476 0-.342-.266-.55-1.279-.95-1.47-.571-2.158-1.35-2.158-2.51 0-1.16.859-2.244 2.807-2.244 1.127 0 1.948.323 2.348.59.172.113.268.322.172.513l-.477.97c-.095.17-.305.19-.458.133 0 0-.859-.4-1.585-.4-.458 0-.649.19-.649.438 0 .342.344.456 1.05.741 1.47.57 2.578 1.198 2.578 2.681 0 1.255-1.107 2.32-3.036 2.32-1.26 0-2.139-.4-2.54-.703-.115-.096-.192-.248-.115-.4ZM218.316 46.704c.764 0 1.394.21 1.394.21.018-.97-.287-1.312-.993-1.312-.707 0-1.699.152-2.139.285-.267.076-.401-.095-.439-.342l-.172-.989c-.057-.285.096-.419.268-.476.153-.056 1.375-.361 2.597-.361 2.386 0 2.94 1.236 2.94 3.308v4.127c0 .19-.172.361-.363.361h-.688c-.133 0-.229-.057-.324-.266l-.229-.514c-.44.4-1.146.97-2.33.97-1.527 0-2.578-.989-2.578-2.605.001-1.35 1.108-2.396 3.056-2.396Zm.038 3.385c.611 0 1.203-.513 1.317-.742v-1.046s-.516-.228-1.069-.228c-.745 0-1.241.419-1.241 1.027 0 .57.401.99.993.99ZM224.309 50.602l.516-1.026c.076-.19.267-.229.439-.134 0 0 .859.457 1.738.457.382 0 .649-.153.649-.476 0-.342-.267-.55-1.279-.95-1.471-.571-2.158-1.35-2.158-2.51 0-1.16.859-2.244 2.807-2.244 1.127 0 1.948.323 2.348.59.172.113.268.322.172.513l-.477.97c-.095.17-.306.19-.458.133 0 0-.859-.4-1.585-.4-.458 0-.649.19-.649.438 0 .342.344.456 1.05.741 1.471.57 2.578 1.198 2.578 2.681 0 1.255-1.107 2.32-3.036 2.32-1.26 0-2.139-.4-2.539-.703-.116-.096-.192-.248-.116-.4Z"/></svg>