<svg width="592" height="156" viewBox="0 0 592 156" fill="none" xmlns="http://www.w3.org/2000/svg">
<path d="M32.78 32.362C47.96 32.362 57.87 39.862 57.87 51.662C57.87 61.812 51.71 66.992 45.66 69.652C54.79 72.402 62.17 77.702 62.17 88.402C62.17 101.742 51.06 109.582 34.23 109.582H0V32.362H32.78ZM31.35 66.782C41.81 66.782 49.06 62.042 49.06 52.892C49.06 45.172 43.01 40.202 32.01 40.202H8.58V66.792H31.35V66.782ZM34.43 101.742C46.09 101.742 53.36 96.562 53.36 87.852C53.36 79.142 46.32 74.512 32.89 74.512H8.58V101.762H34.43V101.742ZM80.32 109.552H71.85V29.042H80.32V109.572V109.552ZM133.48 85.172V52.542H141.85V109.582H133.48V99.652C129.62 105.822 123.8 110.792 114 110.792C100.25 110.792 92.22 101.532 92.22 87.962V52.542H100.69V85.862C100.69 96.452 106.41 103.072 116.42 103.072C126.43 103.072 133.47 95.902 133.47 85.202L133.48 85.172ZM159.08 84.182C160.29 96.532 169.09 103.482 179.11 103.482C186.93 103.482 192.42 100.292 197.05 95.432L202.32 100.172C196.6 106.572 189.67 110.872 178.89 110.872C163.27 110.872 150.51 98.842 150.51 81.082C150.51 64.532 162.06 51.292 177.79 51.292C194.62 51.292 204.31 64.752 204.31 81.522C204.31 82.302 204.31 83.172 204.2 84.162H159.07L159.08 84.182ZM159.08 77.912H195.72C194.84 67.532 188.89 58.502 177.57 58.502C167.66 58.502 160.18 66.772 159.08 77.912Z" fill="#3BC7DA"/>
<path d="M284.84 36.312H236.33V67.982H279.89V73.272H236.33V108.242H230.61V31.022H284.85V36.312H284.84ZM341.69 108.242H336.3V97.762C332.55 104.382 326.29 109.562 316.06 109.562C301.87 109.562 293.62 99.852 293.62 86.392V51.962H299.01V85.392C299.01 96.972 305.5 104.592 316.83 104.592C328.16 104.592 336.31 96.202 336.31 84.512V51.962H341.7V108.222H341.69V108.242ZM383.14 107.262C380.28 108.592 377.53 109.252 374.01 109.252C365.32 109.252 358.28 104.512 358.28 93.802V56.922H350.14V51.952H358.28V33.962H363.68V51.952H383.37V56.922H363.68V93.222C363.68 101.272 368.41 104.152 374.9 104.152C377.64 104.152 379.96 103.602 383.15 102.162V107.232L383.14 107.262ZM439.46 108.252H434.07V97.772C430.33 104.392 424.06 109.572 413.83 109.572C399.64 109.572 391.38 99.862 391.38 86.402V51.962H396.77V85.392C396.77 96.972 403.26 104.592 414.59 104.592C425.92 104.592 434.07 96.202 434.07 84.512V51.962H439.46V108.222V108.252ZM483.33 57.082H482.78C469.8 57.082 458.47 66.892 458.47 85.222V108.282H453.08V51.982H458.47V67.982C462.87 57.942 472.22 50.662 483.33 51.112V57.042V57.082ZM489.33 82.342C490.32 96.352 500.33 104.522 511.34 104.522C520.03 104.522 525.97 100.652 530.59 95.702L534.32 99.022C528.6 105.202 521.88 109.612 511.11 109.612C496.37 109.612 483.6 97.812 483.6 80.262V80.052C483.6 63.732 495.05 50.712 510.23 50.712C525.41 50.712 535.97 63.502 535.97 80.162V80.372C535.97 81.152 535.97 81.472 535.86 82.362H489.33V82.342ZM489.33 77.472H530.15C529.39 66.112 522.89 55.632 510.02 55.632C498.91 55.632 490.33 65.012 489.34 77.472H489.33Z" fill="white"/>
<path opacity="0.8" d="M457.141 20.447C509.474 -25.6411 592.779 11.3862 591.639 79.6714C589.798 147.937 504.862 181.509 454.65 133.281C463.074 141.006 473.158 147.027 484.133 150.667C534.705 167.666 588.818 131.548 589.638 79.6327C590.858 12.4704 509.334 -23.5792 457.141 20.447Z" fill="white"/>
</svg>
